<?xml version="1.0" encoding="UTF-8"?>
<svg version="1.1" xmlns="http://www.w3.org/2000/svg" width="1563" height="1563">
<path d="M0 0 C515.79 0 1031.58 0 1563 0 C1563 515.79 1563 1031.58 1563 1563 C1047.21 1563 531.42 1563 0 1563 C0 1047.21 0 531.42 0 0 Z " fill="#000000" transform="translate(0,0)"/>
<path d="M0 0 C2.4770675 1.5674304 4.36184802 3.3476475 6.43535423 5.42266369 C7.2988398 6.28195477 8.16232536 7.14124584 9.05197716 8.02657604 C10.0008807 8.98096286 10.94968411 9.93544925 11.89839745 10.89002514 C12.90359595 11.89415038 13.90922735 12.89784243 14.91525841 13.90113354 C17.64514148 16.6261701 20.36873372 19.35741566 23.09111547 22.08994365 C25.94510468 24.95272579 28.80437421 27.81022513 31.66295433 30.66842175 C36.46636918 35.47277327 41.26589595 40.2809813 46.06294823 45.0916853 C51.59794574 50.64237703 57.13812058 56.1878568 62.68133771 61.73033923 C68.59265787 67.64098184 74.50015442 73.55543481 80.40654993 79.47099805 C82.10288886 81.16946149 83.79993109 82.86721948 85.49713326 84.56482029 C88.17365472 87.24235233 90.84758986 89.92244202 93.51961136 92.60446453 C94.49667315 93.58442775 95.47456042 94.56356879 96.45336533 95.54179096 C101.55409365 100.64063285 106.45900996 105.78510843 111.0844326 111.31898022 C112.72874221 113.00770798 114.39694243 114.67340054 116.0844326 116.31898022 C117.27812295 117.50508509 118.47055378 118.69245821 119.66206932 119.8807478 C120.31980339 120.53525417 120.97753746 121.18976055 121.65520287 121.86410046 C124.63980466 124.83524876 127.62169931 127.80910792 130.60347557 130.78309155 C132.16963219 132.34421699 133.73668484 133.90444406 135.30464745 135.46375561 C137.5852176 137.73210072 139.86245804 140.00374475 142.1391201 142.27601147 C142.83101433 142.96274441 143.52290855 143.64947735 144.23576927 144.35702038 C148.72535335 148.84609379 152.94517585 153.50696255 157.0844326 158.31898022 C158.06786728 159.4264443 159.05317381 160.53225308 160.04146385 161.63538647 C204.33426369 211.69456424 188.0844326 255.5808702 188.0844326 330.31898022 C1.6344326 330.31898022 -184.8155674 330.31898022 -376.9155674 330.31898022 C-376.9155674 245.35962824 -376.9155674 245.35962824 -374.6030674 224.19398022 C-374.49760597 223.21485668 -374.39214455 222.23573315 -374.28348732 221.2269392 C-372.00763828 203.79540182 -363.63458801 189.52398057 -350.35892677 178.1734724 C-342.34983643 172.09463045 -333.10823262 167.67812044 -324.21048927 163.046031 C-321.33342797 161.53800405 -318.4858933 159.99235823 -315.6499424 158.40882397 C-299.66509661 149.48427838 -283.30594062 141.26715827 -267.00336647 132.94381237 C-259.87690863 129.30367381 -252.7671211 125.6324662 -245.6655674 121.94398022 C-244.58920021 121.38549389 -243.51283302 120.82700756 -242.40384865 120.2515974 C-237.15498382 117.52659368 -231.91011634 114.79413703 -226.66947365 112.05335522 C-211.34647178 104.05457023 -195.92000993 96.28046137 -180.43631935 88.59778881 C-179.61875664 88.19113995 -178.80119392 87.78449108 -177.95885658 87.36551952 C-176.46596918 86.6230505 -174.97227344 85.88220205 -173.47738075 85.1437788 C-169.70452419 83.2659669 -165.95657076 81.34701582 -162.2358799 79.36794567 C-147.09353939 71.3166028 -131.75464739 63.66474983 -116.41394615 56.00100684 C-112.49371469 54.04217446 -108.57447525 52.0813589 -104.65506935 50.12087536 C-98.09678519 46.8408304 -91.53767133 43.5624494 -84.9780674 40.28504467 C-77.39719123 36.49734506 -69.81778035 32.70672559 -62.23909473 28.91464514 C-55.70272389 25.64419351 -49.16557781 22.37529559 -42.62777615 19.10770518 C-38.7347157 17.1619536 -34.84192604 15.21566551 -30.94983864 13.26796818 C-27.3062334 11.44472466 -23.66166049 9.62343043 -20.01632118 7.80365658 C-18.67879369 7.13555499 -17.34160765 6.46676932 -16.00478554 5.79725742 C-14.18389609 4.88545104 -12.36165757 3.97634027 -10.53934669 3.06737804 C-9.5196328 2.55770961 -8.4999189 2.04804117 -7.44930458 1.52292824 C-2.42779579 -0.86312649 -2.42779579 -0.86312649 0 0 Z " fill="#FEFEFE" transform="translate(874.9155673980713,781.68101978302)"/>
<path d="M0 0 C186.78 0 373.56 0 566 0 C566 123.14753338 566 123.14753338 544.6796875 145.51171875 C540.48650487 149.40538833 535.95320732 152.1740128 531 155 C529.79884897 155.72728702 528.59974523 156.45796239 527.40234375 157.19140625 C515.89128645 164.18389065 503.94926103 170.31316039 491.97412109 176.46435547 C487.77777936 178.631076 483.60831 180.84717863 479.4375 183.0625 C471.43730495 187.29799882 463.35402963 191.35869133 455.23608398 195.36352539 C450.08159597 197.91716208 444.97008165 200.53382208 439.88932043 203.23063058 C427.76390224 209.6620154 415.51177147 215.8320826 403.24243164 221.9831543 C400.92096176 223.14867149 398.59955763 224.31431964 396.2782135 225.48008728 C389.3894529 228.93890963 382.49881128 232.39397475 375.60767165 235.84805438 C373.65885348 236.82487174 371.71006812 237.80175454 369.7612884 238.77864861 C357.62042061 244.8645393 345.47869572 250.94871791 333.3350153 257.02899456 C330.54209777 258.42742741 327.74919128 259.8258823 324.95629883 261.22436523 C324.26230751 261.57186507 323.5683162 261.91936491 322.85329484 262.27739505 C311.55631929 267.93442689 300.26420714 273.60109925 288.97396023 279.27154603 C277.35223586 285.10825951 265.7260246 290.93595448 254.09539503 296.75490314 C247.57666045 300.01660182 241.06000348 303.28231249 234.54841805 306.55826378 C228.44286988 309.62992024 222.33138283 312.68944974 216.21559715 315.74067116 C213.96885896 316.86406736 211.72418618 317.99160484 209.48171234 319.12348938 C206.43074897 320.66268821 203.37283238 322.18706856 200.31263733 323.70780945 C199.41898517 324.16303299 198.52533301 324.61825653 197.60460049 325.08727473 C196.78627222 325.49015737 195.96794395 325.89304001 195.12481785 326.30813122 C194.41972413 326.6615462 193.7146304 327.01496119 192.98817021 327.37908572 C190.53917453 328.14391782 189.37134623 327.93545227 187 327 C184.88753779 325.17134967 182.94143216 323.33729097 180.98539734 321.35289001 C180.08725594 320.45965187 180.08725594 320.45965187 179.17097026 319.54836851 C177.16105543 317.54575189 175.16206705 315.53257118 173.1628418 313.51928711 C171.72598883 312.08322481 170.28848295 310.64781553 168.85037231 309.2130127 C164.94051939 305.30830338 161.04008753 301.39430423 157.14136863 297.47848201 C153.05909862 293.38118712 148.96873554 289.29198709 144.87934875 285.20179749 C138.0070652 278.32581809 131.14044771 271.44422246 124.27758789 264.55883789 C115.48115846 255.73359558 106.67554525 246.91757732 97.86693096 238.10449886 C90.28605107 230.51962948 82.7094333 222.93050664 75.13348794 215.34070897 C72.70328746 212.9064193 70.27250792 210.472709 67.84165001 208.03907585 C64.01184354 204.20435264 60.18471227 200.36697821 56.35959244 196.52758026 C54.9588413 195.12233004 53.55726745 193.71789931 52.15479088 192.31437111 C45.55773397 185.71126024 39.03127975 179.13185225 33 172 C31.37956725 170.24577005 29.75504553 168.49530128 28.125 166.75 C-16.04522021 118.0958332 0 70.29611757 0 0 Z " fill="#FEFEFE" transform="translate(498,451)"/>
</svg>
